# xmcd CD database file
#
# Track frame offsets:
#	150
#	26037
#	41662
#	56089
#	75225
#	93247
#	116877
#	130935
#	144035
#	162580
#	175042
#	191270
#	208942
#
# Disc length: 3118 seconds
#
# Revision: 0
# Processed by: cddbd v1.5PL3 Copyright (c) Steve Scherf et al.
# Submitted via: CDex 1.51
#
DISCID=ac0c2c0d
DTITLE=The Space Cowboys - トランス
DYEAR=1997
DGENRE=Rock
TTITLE0=エマージェンシー
TTITLE1=パラレル・ライン
TTITLE2=シーズ・バタフライ
TTITLE3=ウインド・ブロウズ
TTITLE4=ウィスパー
TTITLE5=トゥナイト
TTITLE6=LOVEAHOLIC
TTITLE7=ラスト・オンルッカー
TTITLE8=ファーリィ・パラダイス
TTITLE9=ウォッチ・ザット・グレイヴ
TTITLE10=フューチャー・フォトジェン
TTITLE11=ソリテュード
TTITLE12=揺り籠と棺桶
EXTD=YEAR: 1997
EXTT0=
EXTT1=
EXTT2=
EXTT3=
EXTT4=
EXTT5=
EXTT6=
EXTT7=
EXTT8=
EXTT9=
EXTT10=
EXTT11=
EXTT12=
PLAYORDER=
